<svg xmlns="http://www.w3.org/2000/svg" viewBox="0 0 100 100"><path fill="#008cdc" d="M0 0h100v100H0z"/><path d="M80.77 40.48A13.35 13.35 0 0073 28.39L56.1 20a13.58 13.58 0 00-12.13-.06s-18.71 9.43-19.5 10a2.13 2.13 0 00-1 1.83 2 2 0 001 1.72l14.31 7.09a5 5 0 002.11.46 5 5 0 002.5-.66l4.38-2.17a3.53 3.53 0 01.63-.22 6.19 6.19 0 013.17 0 3.8 3.8 0 01.68.24l6.26 3.12a4.92 4.92 0 012.85 4.46V52a4.91 4.91 0 01-2.77 4.42l-6.35 3.17a5 5 0 01-2.22.52 5.1 5.1 0 01-2.27-.55L22.57 47.49a2.23 2.23 0 00-1-.23 2.33 2.33 0 00-2.34 2.32v28.05A3.91 3.91 0 0026 80.25l5.68-5.64a3.82 3.82 0 012.58-1A4 4 0 0136 74l8 3.95a13.56 13.56 0 0012.05.05l17.22-8.6a13.34 13.34 0 007.5-12z" fill="#fff"/></svg>